<svg width="46" height="46" viewBox="0 0 46 46" fill="none" xmlns="http://www.w3.org/2000/svg">
<path fill-rule="evenodd" clip-rule="evenodd" d="M42.0517 16.3875L40.0392 14.375C39.0802 13.4052 37.7804 12.8481 36.4167 12.8225H28.75V11.7108C28.75 8.79983 26.3902 6.44 23.4792 6.44H7.66671C6.8728 6.44 6.22921 7.08359 6.22921 7.8775C6.22921 8.67141 6.8728 9.315 7.66671 9.315H23.4217C24.7449 9.315 25.8175 10.3877 25.8175 11.7108V23.8433C25.8175 24.6372 26.4611 25.2808 27.255 25.2808C28.049 25.2808 28.6925 24.6372 28.6925 23.8433V15.6975H36.3592C36.9944 15.695 37.6033 15.951 38.0459 16.4067L40.0584 18.3233C40.3328 18.6079 40.5307 18.9574 40.6334 19.3392H32.5834C31.7895 19.3392 31.1459 19.9828 31.1459 20.7767C31.1459 21.5706 31.7895 22.2142 32.5834 22.2142H40.7292V30.36C40.7553 31.0119 40.5145 31.6462 40.0623 32.1164C39.6101 32.5867 38.9857 32.8522 38.3334 32.8517H36.2059C35.7342 30.6403 33.7808 29.0596 31.5196 29.0596C29.2585 29.0596 27.3051 30.6403 26.8334 32.8517H16.5984C16.0825 30.5659 13.9777 28.997 11.6398 29.1557C9.3019 29.3144 7.4284 31.1532 7.22608 33.4877C7.02375 35.8222 8.55297 37.956 10.8287 38.5145C13.1045 39.073 15.4478 37.8896 16.3492 35.7267H27.1017C27.8488 37.5057 29.5901 38.6631 31.5196 38.6631C33.4492 38.6631 35.1904 37.5057 35.9375 35.7267H38.3334C41.2444 35.7267 43.6042 33.3668 43.6042 30.4558V20.125C43.6068 18.7218 43.0477 17.3759 42.0517 16.3875ZM11.9217 35.42C11.2782 35.4514 10.6808 35.0869 10.4143 34.5004C10.1477 33.9139 10.2662 33.2241 10.713 32.76C11.1599 32.296 11.8447 32.1516 12.4409 32.3958C13.037 32.64 13.4238 33.2233 13.4167 33.8675C13.4173 34.703 12.7566 35.3891 11.9217 35.42ZM30.0563 34.4453C30.2984 35.0349 30.8726 35.42 31.51 35.42C32.3706 35.4201 33.0712 34.728 33.0817 33.8675C33.0895 33.2301 32.7115 32.6512 32.1249 32.4019C31.5383 32.1526 30.8591 32.2823 30.4057 32.7302C29.9522 33.1782 29.8142 33.8556 30.0563 34.4453Z" fill="black"/>
<path d="M20.6042 17.25C20.5939 16.4604 19.9563 15.8228 19.1667 15.8125H3.83337C3.03946 15.8125 2.39587 16.4561 2.39587 17.25C2.39587 18.0439 3.03946 18.6875 3.83337 18.6875H19.1667C19.9563 18.6772 20.5939 18.0396 20.6042 17.25Z" fill="black"/>
<path d="M19.1667 21.5625H9.58337C8.78946 21.5625 8.14587 22.2061 8.14587 23C8.14587 23.7939 8.78946 24.4375 9.58337 24.4375H19.1667C19.9606 24.4375 20.6042 23.7939 20.6042 23C20.6042 22.2061 19.9606 21.5625 19.1667 21.5625Z" fill="black"/>
</svg>
