<svg width="46" height="46" viewBox="0 0 46 46" fill="none" xmlns="http://www.w3.org/2000/svg">
<path d="M23.1917 39.8667C22.2334 39.8667 21.0834 39.4833 20.3167 38.7167C7.85837 27.7917 7.66671 27.6 7.66671 27.4083L7.47504 27.2167C5.17504 24.9167 3.83337 21.6583 3.83337 18.4V18.0167C4.02504 11.1167 9.58337 5.75 16.4834 5.75C18.5917 5.75 21.4667 6.9 23.1917 9.2C24.9167 6.9 27.9834 5.75 30.0917 5.75C36.9917 5.75 42.3584 11.1167 42.7417 18.0167V18.4C42.7417 21.85 41.4 24.9167 39.1 27.4083L38.9084 27.6C38.7167 27.7917 37.1834 29.1333 26.2584 38.9083C25.3 39.4833 24.3417 39.8667 23.1917 39.8667ZM10.5417 26.8333C11.3084 27.6 15.1417 30.2833 22.2334 36.4167C22.8084 36.9917 23.575 36.9917 24.15 36.4167C31.4334 29.9 35.65 26.2583 36.6084 25.4917L36.8 25.3C38.7167 23.3833 39.675 20.8917 39.675 18.4V18.0167C39.4834 12.65 35.2667 8.625 29.9 8.625C28.5584 8.625 25.875 9.58333 24.9167 11.6917C24.5334 12.4583 23.7667 12.8417 23 12.8417C22.2334 12.8417 21.4667 12.4583 21.0834 11.6917C20.125 9.775 17.6334 8.625 16.1 8.625C10.925 8.625 6.51671 12.8417 6.32504 18.0167V18.5917C6.32504 21.0833 7.47504 23.575 9.20004 25.3L10.5417 26.8333Z" fill="black"/>
</svg>
