<svg width="1250" height="942" viewBox="0 0 1250 942" fill="none" xmlns="http://www.w3.org/2000/svg">
<path fill-rule="evenodd" clip-rule="evenodd" d="M152.325 35.062C162.007 35.062 169.856 27.2131 169.856 17.531C169.856 7.8489 162.007 0 152.325 0C142.643 0 134.794 7.8489 134.794 17.531C134.794 27.2131 142.643 35.062 152.325 35.062ZM1148.48 104.017C1148.48 112.839 1141.33 119.99 1132.5 119.99C1123.68 119.99 1116.53 112.839 1116.53 104.017C1116.53 95.1959 1123.68 88.0447 1132.5 88.0447C1141.33 88.0447 1148.48 95.1959 1148.48 104.017ZM43.2432 857.851C52.0647 857.851 59.2159 850.7 59.2159 841.878C59.2159 833.057 52.0647 825.906 43.2432 825.906C34.4217 825.906 27.2705 833.057 27.2705 841.878C27.2705 850.7 34.4217 857.851 43.2432 857.851ZM1024.98 942C1033.8 942 1040.95 934.849 1040.95 926.027C1040.95 917.206 1033.8 910.055 1024.98 910.055C1016.16 910.055 1009.01 917.206 1009.01 926.027C1009.01 934.849 1016.16 942 1024.98 942ZM365.424 81.4218C365.424 86.3705 361.413 90.3821 356.464 90.3821C351.515 90.3821 347.504 86.3705 347.504 81.4218C347.504 76.4732 351.515 72.4615 356.464 72.4615C361.413 72.4615 365.424 76.4732 365.424 81.4218ZM630.337 110.64C636.362 110.64 641.246 105.756 641.246 99.732C641.246 93.7076 636.362 88.8238 630.337 88.8238C624.313 88.8238 619.429 93.7076 619.429 99.732C619.429 105.756 624.313 110.64 630.337 110.64ZM24.1538 228.682C24.1538 235.352 18.7468 240.759 12.0769 240.759C5.40702 240.759 0 235.352 0 228.682C0 222.012 5.40702 216.605 12.0769 216.605C18.7468 216.605 24.1538 222.012 24.1538 228.682ZM1243.14 451.911C1246.8 451.911 1249.77 448.946 1249.77 445.288C1249.77 441.63 1246.8 438.665 1243.14 438.665C1239.49 438.665 1236.52 441.63 1236.52 445.288C1236.52 448.946 1239.49 451.911 1243.14 451.911ZM815.777 920.184C815.777 925.778 811.242 930.313 805.648 930.313C800.054 930.313 795.519 925.778 795.519 920.184C795.519 914.589 800.054 910.055 805.648 910.055C811.242 910.055 815.777 914.589 815.777 920.184ZM458.144 874.993C467.611 874.993 475.285 867.318 475.285 857.851C475.285 848.384 467.611 840.71 458.144 840.71C448.677 840.71 441.002 848.384 441.002 857.851C441.002 867.318 448.677 874.993 458.144 874.993ZM448.015 246.213C448.015 255.68 440.34 263.355 430.873 263.355C421.406 263.355 413.732 255.68 413.732 246.213C413.732 236.746 421.406 229.072 430.873 229.072C440.34 229.072 448.015 236.746 448.015 246.213ZM464.767 31.1663C468.424 31.1663 471.39 28.2011 471.39 24.5434C471.39 20.8857 468.424 17.9206 464.767 17.9206C461.109 17.9206 458.144 20.8857 458.144 24.5434C458.144 28.2011 461.109 31.1663 464.767 31.1663Z" fill="#C7C1ED"/>
</svg>
