<svg width="37" height="37" viewBox="0 0 37 37" fill="none" xmlns="http://www.w3.org/2000/svg">
<path fill-rule="evenodd" clip-rule="evenodd" d="M21.7411 13.0587H32.3402C35.0044 13.0587 36.9977 16.0871 36.3461 19.2495L34.0077 32.0721C33.7972 34.1877 32.1185 35.8584 30.0019 36.0587H7.42356C5.27708 35.8933 3.5574 34.214 3.34106 32.0721L0.84939 19.2112C0.27439 16.0487 2.26772 13.0204 4.93189 13.0204H16.4319L8.05606 3.03455C7.71314 2.36752 7.88931 1.55114 8.47679 1.08489C9.06426 0.618634 9.89933 0.632451 10.4711 1.11788L19.1727 11.3721L26.8394 1.11788C27.0878 0.762628 27.4735 0.527427 27.9031 0.469179C28.3326 0.410932 28.767 0.534945 29.1011 0.811216C29.7857 1.34029 29.9219 2.31952 29.4077 3.01538L21.7411 13.0587ZM30.9986 31.5162L33.3369 18.6937C33.5179 17.9121 33.3424 17.0905 32.8577 16.4512C32.7348 16.2788 32.5489 16.1617 32.3402 16.1254H5.00856C4.79991 16.1617 4.61398 16.2788 4.49106 16.4512C4.0064 17.0905 3.83084 17.9121 4.01189 18.6937L6.35022 31.5162C6.50356 32.417 7.04022 32.9346 7.34689 32.9346H30.0019C30.3086 32.9346 30.8452 32.417 30.9986 31.5162Z" fill="black"/>
<path d="M19.2494 19.1729C18.3814 19.1729 17.6777 19.8765 17.6777 20.7446V26.4946C17.6882 27.3551 18.3888 28.0471 19.2494 28.0471C20.1174 28.0471 20.8211 27.3434 20.8211 26.4754V20.7254C20.8106 19.8649 20.11 19.1728 19.2494 19.1729Z" fill="black"/>
<path d="M11.2952 20.2845C11.0808 19.7265 10.5682 19.3384 9.97286 19.2833C9.37752 19.2283 8.80251 19.5158 8.48934 20.0251C8.17617 20.5344 8.1791 21.1773 8.49689 21.6837L11.6402 27.9512C11.9001 28.4855 12.4453 28.8216 13.0394 28.8137C13.2785 28.82 13.5155 28.7674 13.7294 28.6604C14.1032 28.4751 14.3881 28.1487 14.5211 27.7533C14.6541 27.3578 14.6244 26.9256 14.4386 26.5521L11.2952 20.2845Z" fill="black"/>
<path d="M29.4269 19.4795C29.0542 19.2883 28.6201 19.2558 28.2231 19.3893C27.8261 19.5228 27.4999 19.8111 27.3186 20.1887L24.1752 26.4562C23.9893 26.8298 23.9596 27.2619 24.0927 27.6574C24.2257 28.0529 24.5105 28.3793 24.8844 28.5646C25.0988 28.6701 25.3354 28.7227 25.5744 28.7179C26.1685 28.7258 26.7137 28.3897 26.9736 27.8554L30.1744 21.5879C30.3576 21.2096 30.3817 20.7737 30.2413 20.3775C30.1008 19.9813 29.8075 19.6579 29.4269 19.4795Z" fill="black"/>
</svg>
